<?xml version="1.0" encoding="UTF-8" standalone="no"?>
<svg
   xmlns:dc="http://purl.org/dc/elements/1.1/"
   xmlns:cc="http://creativecommons.org/ns#"
   xmlns:rdf="http://www.w3.org/1999/02/22-rdf-syntax-ns#"
   xmlns:svg="http://www.w3.org/2000/svg"
   xmlns="http://www.w3.org/2000/svg"
   id="svg23"
   version="1.1"
   height="58"
   width="555">
  <metadata
     id="metadata29">
    <rdf:RDF>
      <cc:Work
         rdf:about="">
        <dc:format>image/svg+xml</dc:format>
        <dc:type
           rdf:resource="http://purl.org/dc/dcmitype/StillImage" />
      </cc:Work>
    </rdf:RDF>
  </metadata>
  <defs
     id="defs27" />
  <g
     id="g5">
    <title
       id="title2">background</title>
    <path
       id="canvas_background"
       d="M -1,-1 H 556 V 59 H -1 Z"
       style="fill:none" />
  </g>
  <g
     id="g21">
    <title
       id="title7">Layer 1</title>
    <g
       id="svg_1">
      <path
         style="fill:#191d3e;stroke-width:0;stroke-miterlimit:2"
         id="path213335"
         d="m 50.511473,13.20652 c -0.49896,-0.16632 -0.99792,0.11088 -1.1642,0.60984 l -10.035,33.375 -9.8129,-33.375 c -0.0554,-0.0554 -0.0554,-0.11088 -0.0554,-0.11088 0,-0.0554 0,-0.0554 -0.0554,-0.0554 0,-0.0554 0,-0.11088 -0.0554,-0.11088 v -0.0554 c -0.11088,-0.0554 -0.16632,-0.16632 -0.22176,-0.16632 l -0.0554,-0.0554 c -0.0554,0 -0.0554,0 -0.11088,-0.0554 h -0.11088 c 0,-0.0554 0,-0.0554 -0.0554,-0.0554 h -0.11088 -0.0554 -0.11088 -0.11088 c 0,0 -0.0554,0 -0.0554,0.0554 h -0.11088 c -0.11088,0.0554 -0.2772,0.16632 -0.33264,0.2772 h -0.0554 c 0,0.0554 -0.0554,0.11088 -0.0554,0.16632 0,0 -0.0554,0 -0.0554,0.0554 0,0 0,0.0554 -0.0554,0.11088 l -9.8129,33.375 -10.0350001,-33.375 c -0.16632,-0.49896 -0.66528,-0.77616 -1.1642,-0.60984 -0.49896,0.11088 -0.77616,0.66528 -0.60984,1.1642 l 10.9220001,36.313 c 0.11088,0.44352 0.49896,0.66528 0.88704,0.66528 0.38808,0 0.77616,-0.2772 0.88704,-0.66528 l 9.8683,-33.319 9.8129,33.319 c 0.11088,0.38808 0.49896,0.66528 0.88704,0.66528 0.44352,0 0.77616,-0.2772 0.88704,-0.66528 l 10.922,-36.313 c 0.16632,-0.49896 -0.11088,-1.0534 -0.60984,-1.1642 z"
         stroke-miterlimit="2" />
      <path
         style="fill:#191d3e;stroke-width:0;stroke-miterlimit:2"
         id="path213337"
         d="m 62.571473,15.03652 h 21.289 c 0.49896,0 0.94248,-0.44352 0.94248,-0.94248 0,-0.5544 -0.44352,-0.94248 -0.94248,-0.94248 h -21.289 c -0.49896,0 -0.94248,0.38808 -0.94248,0.94248 0,0.49896 0.44352,0.94248 0.94248,0.94248 z m 0,31.545 c 0.49896,0 0.94248,-0.38808 0.94248,-0.94248 v -13.028 h 19.958 c 0.49896,0 0.94248,-0.44352 0.94248,-0.94248 0,-0.49896 -0.44352,-0.94248 -0.94248,-0.94248 h -19.958 v -11.86 c 0,-0.49896 -0.44352,-0.94248 -0.94248,-0.94248 -0.49896,0 -0.94248,0.44352 -0.94248,0.94248 v 26.778 c 0,0.5544 0.44352,0.94248 0.94248,0.94248 z m 21.289,2.9383 h -21.289 c -0.49896,0 -0.94248,0.38808 -0.94248,0.94248 0,0.49896 0.44352,0.88704 0.94248,0.88704 h 21.289 c 0.49896,0 0.94248,-0.38808 0.94248,-0.88704 0,-0.5544 -0.44352,-0.94248 -0.94248,-0.94248 z"
         stroke-miterlimit="2" />
      <path
         style="fill:#191d3e;stroke-width:0;stroke-miterlimit:2"
         id="path213339"
         d="m 114.95147,31.38652 c 2.9938,-1.6632 5.045,-4.8787 5.045,-8.5378 0,-5.3777 -4.3243,-9.702 -9.702,-9.702 H 96.988473 c -0.49896,0 -0.94248,0.38808 -0.94248,0.94248 0,0.49896 0.44352,0.94248 0.94248,0.94248 h 13.305997 c 4.3243,0 7.8725,3.4927 7.8725,7.817 0,4.3243 -3.5482,7.8725 -7.8725,7.8725 H 97.934473 v -11.85 c 0,-0.49896 -0.44352,-0.94248 -0.94248,-0.94248 -0.49896,0 -0.94248,0.44352 -0.94248,0.94248 v 26.778 c 0,0.5544 0.44352,0.94248 0.94248,0.94248 0.49896,0 0.94248,-0.38808 0.94248,-0.94248 v -13.084 h 12.362997 0.77616 0.2772 c 4.657,0 8.4269,3.8254 8.4269,8.4823 0,4.657 -3.7699,8.4823 -8.4269,8.4823 H 96.991833 c -0.49896,0 -0.94248,0.38808 -0.94248,0.94248 0,0.49896 0.44352,0.88704 0.94248,0.88704 h 14.358997 c 5.6549,0 10.312,-4.6015 10.312,-10.312 0,-4.4352 -2.772,-8.2051 -6.7082,-9.6466 z"
         stroke-miterlimit="2" />
      <path
         style="fill:#191d3e;stroke-width:0;stroke-miterlimit:2"
         id="path213341"
         d="m 156.56147,31.61652 c 3.9917,-1.5523 6.6528,-4.8787 6.6528,-8.7595 0,-5.4331 -5.1005,-9.702 -11.698,-9.702 -4.3243,0 -8.3714,1.8295 -10.534,4.7678 -0.33264,0.44352 -0.22176,0.99792 0.16632,1.3306 0.44352,0.2772 0.99792,0.22176 1.3306,-0.22176 1.8295,-2.4948 5.3222,-3.9917 9.0367,-3.9917 5.5994,0 9.8683,3.3264 9.8683,7.817 0,4.4352 -4.2689,7.817 -9.8683,7.817 h -3.1046 c -0.49896,0 -0.94248,0.38808 -0.94248,0.94248 0,0.49896 0.44352,0.88704 0.94248,0.88704 h 3.1046 c 5.7103,0 10.367,3.8254 10.367,8.5378 0,4.657 -4.657,8.4823 -10.367,8.4823 -4.2134,0 -8.0942,-2.1622 -9.6466,-5.4331 -0.22176,-0.44352 -0.77616,-0.66528 -1.2197,-0.44352 -0.49896,0.22176 -0.66528,0.77616 -0.44352,1.2751 1.8295,3.9362 6.3202,6.431 11.31,6.431 6.7637,0 12.252,-4.6015 12.252,-10.312 0,-4.2134 -2.9383,-7.817 -7.2072,-9.4248 z"
         stroke-miterlimit="2" />
      <path
         style="fill:#191d3e;stroke-width:0;stroke-miterlimit:2"
         id="path213345"
         d="m 317.23147,49.51652 h -34.317 c -2.1622,0 -4.158,-1.0534 -5.3777,-2.772 l -8.4269,-12.03 h 0.5544 c 5.9321,0 10.811,-4.8233 10.811,-10.755 0,-5.9875 -4.8787,-10.811 -10.811,-10.811 h -12.474 c -0.49896,0 -0.94248,0.38808 -0.94248,0.94248 0,0.49896 0.44352,0.94248 0.94248,0.94248 h 12.474 c 4.9342,0 8.9258,3.9917 8.9258,8.9258 0,4.8787 -3.9917,8.9258 -8.9258,8.9258 h -2.3839 -0.11088 -0.0554 c -0.0554,0 -0.11088,0 -0.11088,0.0554 h -0.1 c 0,0 0,0.0554 -0.0554,0.0554 0,0 -0.0554,0 -0.0554,0.0554 h -0.0554 l -0.0554,0.0554 c 0,0 -0.0554,0 -0.0554,0.0554 l -0.0554,0.0554 c 0,0.0554 -0.0554,0.0554 -0.0554,0.0554 0,0.0554 -0.0554,0.0554 -0.0554,0.11088 0,0 0,0.0554 -0.0554,0.0554 v 0.11088 0.0554 c -0.0554,0.0554 -0.0554,0.11088 -0.0554,0.16632 v 0.0554 c 0,0.0554 0,0.0554 0.0554,0.11088 v 0.0554 0.11088 c 0,0 0,0.0554 0.0554,0.0554 v 0.11088 c 0.0554,0 0.0554,0.0554 0.0554,0.0554 l 9.5357,13.472 c 1.5523,2.2176 4.158,3.5482 6.8746,3.5482 h 34.317 c 0.5544,0 0.94248,-0.38808 0.94248,-0.88704 0,-0.5544 -0.38808,-0.94248 -0.94248,-0.94248 z m -21.289,-34.484 h 21.289 c 0.5544,0 0.94248,-0.44352 0.94248,-0.94248 0,-0.5544 -0.38808,-0.94248 -0.94248,-0.94248 h -21.289 c -0.49896,0 -0.94248,0.38808 -0.94248,0.94248 0,0.49896 0.44352,0.94248 0.94248,0.94248 z m -38.753,3.1046 c -0.49896,0 -0.94248,0.38808 -0.94248,0.88704 v 31.434 c 0,0.49896 0.44352,0.88704 0.94248,0.88704 0.49896,0 0.94248,-0.38808 0.94248,-0.88704 v -31.434 c 0,-0.49896 -0.44352,-0.88704 -0.94248,-0.88704 z m 38.753,14.47 h 20.901 c 0.49896,0 0.94248,-0.44352 0.94248,-0.94248 0,-0.49896 -0.44352,-0.94248 -0.94248,-0.94248 h -20.901 c -0.49896,0 -0.94248,0.44352 -0.94248,0.94248 0,0.49896 0.44352,0.94248 0.94248,0.94248 z"
         stroke-miterlimit="2" />
      <path
         style="fill:#191d3e;stroke-width:0;stroke-miterlimit:2"
         id="path213347"
         d="m 340.70147,30.44652 c -5.544,-1.885 -10.312,-3.5482 -10.312,-8.1497 0,-6.5974 6.9854,-7.2626 9.9792,-7.2626 6.5974,0 10.312,3.9362 10.367,3.9917 0.33264,0.38808 0.88704,0.38808 1.2751,0.0554 0.38808,-0.33264 0.44352,-0.94248 0.11088,-1.3306 -0.16632,-0.16632 -4.2689,-4.6015 -11.753,-4.6015 -7.429,0 -11.809,3.3818 -11.809,9.1476 0,5.9321 5.8212,7.9834 11.532,9.9238 5.8766,2.0513 11.476,3.9917 11.476,9.9238 0,4.7678 -5.544,7.3735 -10.811,7.3735 -6.93,0 -11.809,-4.7124 -11.864,-4.7678 -0.38808,-0.33264 -0.99792,-0.33264 -1.3306,0 -0.38808,0.38808 -0.38808,0.99792 0,1.3306 0.22176,0.22176 5.4331,5.2668 13.195,5.2668 8.316,0 12.696,-4.657 12.696,-9.203 0,-7.2626 -6.7637,-9.5911 -12.751,-11.698 z"
         stroke-miterlimit="2" />
      <path
         style="fill:#191d3e;stroke-width:0;stroke-miterlimit:2"
         id="path213349"
         d="m 366.52147,15.03652 h 21.289 c 0.49896,0 0.94248,-0.44352 0.94248,-0.94248 0,-0.5544 -0.44352,-0.94248 -0.94248,-0.94248 h -21.289 c -0.49896,0 -0.94248,0.38808 -0.94248,0.94248 0,0.49896 0.44352,0.94248 0.94248,0.94248 z m 0,31.545 c 0.49896,0 0.94248,-0.38808 0.94248,-0.94248 v -13.028 h 19.958 c 0.49896,0 0.94248,-0.44352 0.94248,-0.94248 0,-0.49896 -0.44352,-0.94248 -0.94248,-0.94248 h -19.958 v -11.86 c 0,-0.49896 -0.44352,-0.94248 -0.94248,-0.94248 -0.49896,0 -0.94248,0.44352 -0.94248,0.94248 v 26.778 c 0,0.5544 0.44352,0.94248 0.94248,0.94248 z m 21.289,2.9383 h -21.289 c -0.49896,0 -0.94248,0.38808 -0.94248,0.94248 0,0.49896 0.44352,0.88704 0.94248,0.88704 h 21.289 c 0.49896,0 0.94248,-0.38808 0.94248,-0.88704 0,-0.5544 -0.44352,-0.94248 -0.94248,-0.94248 z"
         stroke-miterlimit="2" />
      <path
         style="fill:#191d3e;stroke-width:0;stroke-miterlimit:2"
         id="path213351"
         d="m 442.30147,12.92652 c -0.5544,0 -0.94248,0.38808 -0.94248,0.94248 v 35.648 h -13.306 l -15.357,-36.646 c -0.11088,-0.33264 -0.49896,-0.5544 -0.8316,-0.5544 -0.38808,0 -0.72072,0.22176 -0.88704,0.5544 l -15.634,37.2 c -0.16632,0.49896 0.0554,0.99792 0.49896,1.2197 0.16632,0.0554 0.2772,0.0554 0.38808,0.0554 0.38808,0 0.72072,-0.22176 0.88704,-0.5544 l 14.747,-35.149 14.692,35.149 c 0.16632,0.33264 0.49896,0.5544 0.88704,0.5544 h 14.858 c 0.49896,0 0.94248,-0.38808 0.94248,-0.94248 v -36.52 c 0,-0.5544 -0.44352,-0.94248 -0.94248,-0.94248 z m 22.73,36.978 -10.755,-15.246 h 0.5544 c 5.9875,0 10.866,-4.8787 10.866,-10.866 0,-5.9875 -4.8787,-10.866 -10.866,-10.866 h -7.5398 c -0.49896,0 -0.94248,0.38808 -0.94248,0.94248 0,0.49896 0.44352,0.88704 0.94248,0.88704 h 7.5398 c 4.9896,0 8.9813,4.0471 8.9813,9.0367 0,4.9342 -3.9917,8.9813 -8.9813,8.9813 h -2.3839 -0.16632 -0.0554 c 0,0 -0.0554,0 -0.0554,0.0554 h -0.11088 l -0.0554,0.0554 c 0,0 -0.0554,0 -0.11088,0.0554 l -0.0554,0.0554 c 0,0 -0.0554,0 -0.0554,0.0554 -0.0554,0 -0.0554,0.0554 -0.0554,0.0554 l -0.0554,0.0554 c -0.0554,0.0554 -0.0554,0.0554 -0.0554,0.11088 l -0.0554,0.0554 V 33.439 l -0.0554,0.0554 v 0.11088 0.11088 0.11088 0.0554 c 0.0554,0.0554 0.0554,0.0554 0.0554,0.11088 v 0.0554 l 0.0554,0.0554 c 0,0.0554 0.0554,0.11088 0.0554,0.11088 l 11.809,16.743 c 0.16632,0.2772 0.49896,0.38808 0.77616,0.38808 0.16632,0 0.38808,-0.0554 0.5544,-0.16632 0.38808,-0.2772 0.49896,-0.88704 0.22176,-1.2751 z m -46.958,-10.811 h -12.474 c -0.49896,0 -0.94248,0.44352 -0.94248,0.94248 0,0.49896 0.44352,0.94248 0.94248,0.94248 h 12.474 c 0.49896,0 0.94248,-0.38808 0.94248,-0.94248 0,-0.49896 -0.44352,-0.94248 -0.94248,-0.94248 z"
         stroke-miterlimit="2" />
      <path
         style="fill:#191d3e;stroke-width:0;stroke-miterlimit:2"
         id="path213353"
         d="m 507.13147,44.47652 c -3.271,3.2155 -7.5953,5.045 -12.197,5.045 -9.5357,0 -17.242,-7.7616 -17.242,-17.242 0,-9.5357 7.7062,-17.242 17.242,-17.242 4.6015,0 8.9258,1.7741 12.197,5.045 0.33264,0.33264 0.94248,0.33264 1.3306,0 0.33264,-0.38808 0.33264,-0.99792 0,-1.3306 -3.659,-3.6036 -8.4269,-5.5994 -13.527,-5.5994 -10.534,0 -19.127,8.5378 -19.127,19.127 0,10.534 8.5932,19.071 19.127,19.071 5.1005,0 9.8683,-1.9404 13.527,-5.5994 0.33264,-0.33264 0.33264,-0.94248 0,-1.2751 -0.38808,-0.38808 -0.99792,-0.38808 -1.3306,0 z"
         stroke-miterlimit="2" />
      <path
         style="fill:#191d3e;stroke-width:0;stroke-miterlimit:2"
         id="path213355"
         d="m 521.00147,13.15652 c -0.49896,0 -0.94248,0.38808 -0.94248,0.94248 v 36.369 c 0,0.49896 0.44352,0.88704 0.94248,0.88704 0.49896,0 0.94248,-0.38808 0.94248,-0.88704 V 14.099 c 0,-0.5544 -0.44352,-0.94248 -0.94248,-0.94248 z m 27.942,0 c -0.5544,0 -0.94248,0.38808 -0.94248,0.94248 v 36.369 c 0,0.49896 0.38808,0.88704 0.94248,0.88704 0.49896,0 0.94248,-0.38808 0.94248,-0.88704 V 14.099 c 0,-0.5544 -0.44352,-0.94248 -0.94248,-0.94248 z m -4.7678,17.519 h -18.406 c -0.49896,0 -0.94248,0.44352 -0.94248,0.94248 0,0.5544 0.44352,0.94248 0.94248,0.94248 h 18.406 c 0.49896,0 0.88704,-0.38808 0.88704,-0.94248 0,-0.49896 -0.38808,-0.94248 -0.88704,-0.94248 z"
         stroke-miterlimit="2" />
      <path
         style="fill:#30347c;stroke-width:0.38438001"
         id="icon"
         d="m 217.01147,6.3665201 -0.63707,-0.36652 -3.5699,2.0694 -3.5699,2.0695999 -3.5855,-2.0620999 -3.5853,-2.0621 -0.0671,0.0387 c -0.0368,0.0214 -3.9306,2.265 -8.6527,4.9861999 l -8.5858,4.9473 0.0132,6.3134 c 0.007,3.4724 0.013,7.9697 0.013,9.9942 v 3.6808 l 3.3339,1.9202 3.3337,1.9202 2.2e-4,4.8628 v 4.8628 l 8.6047,4.9577 c 4.7324,2.7265 8.6312,4.9704 8.6631,4.9869 l 0.0586,0.0291 6.5694,-3.7992 c 3.6133,-2.0897 6.6609,-3.8518 6.7723,-3.9164 0.11178,-0.0645 1.035,-0.59797 2.0517,-1.1855 1.0166,-0.58771 1.8606,-1.078 1.8753,-1.0895 0.0211,-0.0169 0.0267,-0.96003 0.0269,-4.5868 l 2.1e-4,-4.5656 3.8034,-2.2119 3.8037,-2.2119 -2.1e-4,-9.9911 -3.9e-4,-9.9911 -8.0162,-4.6164 c -4.405,-2.5368999 -8.2987,-4.7793999 -8.6485,-4.9810999 z m -14.907,7.2900999 c 0.0235,0.0141 0.60866,0.35113 1.3005,0.74885 0.83518,0.48001 1.2479,0.72854 1.2289,0.73965 -0.0158,0.009 -2.5197,1.4541 -5.5639,3.2106 l -5.535,3.1942 -0.005,5.9113 c -0.003,3.2514 -0.0115,5.9117 -0.0192,5.9117 -0.008,0 -0.48812,-0.27163 -1.0677,-0.60374 l -1.054,-0.60386 0.005,-6.1846 0.005,-6.185 5.3321,-3.0823 c 4.7363,-2.7383 5.3367,-3.0796 5.3748,-3.0566 z m 14.282,-0.009 c 0.0149,-2.1e-4 1.3278,0.74823 2.9172,1.6633 1.5896,0.91489 3.9891,2.2959 5.3321,3.0687 l 2.4417,1.4052 v 12.362 l -1.05,0.60781 c -0.57745,0.33404 -1.0583,0.61078 -1.0686,0.61466 -0.0105,0.004 -0.0199,-1.9384 -0.0216,-4.4561 -0.002,-2.4547 -0.009,-5.1168 -0.016,-5.916 l -0.013,-1.4526 -5.5512,-3.2055 c -3.0529,-1.7629 -5.5439,-3.2123 -5.535,-3.2209 0.009,-0.008 0.58322,-0.34279 1.2767,-0.74288 0.69349,-0.40029 1.2731,-0.7279 1.2879,-0.72813 z m -7.156,9.3607 c 0.005,-4.2e-4 1.4883,0.85294 3.2963,1.8961 l 3.2874,1.8967 -2.1e-4,3.8041 -2.1e-4,3.8041 -3.2904,1.8982 -3.2904,1.8982 -3.2809,-1.898 -3.2812,-1.898 v -7.6084 l 3.276,-1.8954 c 1.8014,-1.0425 3.2792,-1.8956 3.2844,-1.896 z m -11.141,19.299 c 0.006,0 2.4975,1.4381 5.5362,3.1959 3.0388,1.7578 5.5466,3.2057 5.5727,3.2177 0.0412,0.0188 0.69181,-0.3507 5.1015,-2.8984 2.7796,-1.606 5.0753,-2.9339 5.1018,-2.951 l 0.0481,-0.031 v 2.877 l -4.1513,2.3919 c -2.2833,1.3156 -4.6925,2.7035 -5.3532,3.0843 l -1.2021,0.69241 -5.3321,-3.0734 -5.3325,-3.0732 v -1.7161 c 0,-0.94396 0.005,-1.7161 0.0111,-1.7161 z" />
    </g>
  </g>
</svg>
