<?xml version="1.0" encoding="utf-8"?>
<svg version="1.1" xmlns:cc="http://creativecommons.org/ns#" xmlns:dc="http://purl.org/dc/elements/1.1/" xmlns:rdf="http://www.w3.org/1999/02/22-rdf-syntax-ns#" xmlns="http://www.w3.org/2000/svg" xmlns:xlink="http://www.w3.org/1999/xlink" x="0px" y="0px" viewBox="0 0 200 200" xml:space="preserve">
<g transform="translate(100,100) scale(0.33333)">
    <path id="path" d="M152.4,-201.9C199,-175.9,239.3,-133.4,249.6,-85C260,-36.7,240.3,17.5,217.4,65.3C194.5,113.1,168.4,154.4,131.6,187.1C94.8,219.9,47.4,243.9,-3.9,249.3C-55.3,254.7,-110.5,241.4,-152.5,210.4C-194.5,179.4,-223.3,130.6,-240,78.2C-256.8,25.8,-261.5,-30.4,-242.2,-75.2C-222.8,-120,-179.3,-153.4,-134.9,-180.2C-90.5,-206.9,-45.3,-227,3.8,-232.2C52.9,-237.5,105.8,-228,152.4,-201.9Z" fill="#30347c">
	</path>
</g>

<animate xlink:href="#path" attributeType="XML" dur="20s" repeatCount="indefinite" attributeName="d" keyTimes="0; 0.2; 0.4; 0.6; 0.8; 1" calcMode="spline" keySplines="0.9 0.1 0.1 0.9;0.9 0.1 0.1 0.9;0.9 0.1 0.1 0.9;0.9 0.1 0.1 0.9;0.9 0.1 0.1 0.9" values="M120.2,-176.8C149.6,-144.2,162.8,-100.7,175.5,-57.9C188.3,-15,200.7,27.1,195.6,70.1C190.6,113,168.2,156.8,132.7,178C97.2,199.1,48.6,197.5,4.9,190.8C-38.8,184.1,-77.6,172.1,-115.3,151.7C-153,131.3,-189.7,102.4,-205.6,64.2C-221.6,26.1,-216.8,-21.4,-204,-67.9C-191.2,-114.4,-170.2,-160,-134.9,-190.6C-99.5,-221.3,-49.8,-237.2,-2.2,-234.2C45.5,-231.2,90.9,-209.5,120.2,-176.8Z; M152.4,-201.9C199,-175.9,239.3,-133.4,249.6,-85C260,-36.7,240.3,17.5,217.4,65.3C194.5,113.1,168.4,154.4,131.6,187.1C94.8,219.9,47.4,243.9,-3.9,249.3C-55.3,254.7,-110.5,241.4,-152.5,210.4C-194.5,179.4,-223.3,130.6,-240,78.2C-256.8,25.8,-261.5,-30.4,-242.2,-75.2C-222.8,-120,-179.3,-153.4,-134.9,-180.2C-90.5,-206.9,-45.3,-227,3.8,-232.2C52.9,-237.5,105.8,-228,152.4,-201.9Z; M101.9,-120.6C144.2,-109.5,199.1,-96,223.6,-62.7C248.2,-29.4,242.5,23.8,220.4,65.3C198.2,106.8,159.7,136.8,120.2,173.1C80.7,209.4,40.4,252.2,-4.7,258.7C-49.8,265.2,-99.5,235.3,-119,192.5C-138.5,149.7,-127.8,93.8,-144.4,46.1C-161,-1.6,-205.1,-41.3,-214.9,-88C-224.7,-134.6,-200.2,-188.3,-158.7,-199.6C-117.2,-210.9,-58.6,-180,-14.4,-160.1C29.8,-140.3,59.6,-131.6,101.9,-120.6Z; M113.1,-161.5C148.6,-129.9,180.8,-99.5,181.6,-66.3C182.3,-33.1,151.5,3.1,132.4,37.1C113.2,71.2,105.7,103.2,85.6,142.9C65.4,182.7,32.7,230.4,-3.9,235.8C-40.6,241.2,-81.1,204.3,-114.7,168.9C-148.3,133.5,-175,99.5,-198.1,57.5C-221.3,15.5,-240.9,-34.6,-221,-64.4C-201.2,-94.2,-141.7,-103.7,-98.3,-132.8C-54.9,-161.8,-27.4,-210.4,5.7,-218.2C38.8,-226.1,77.6,-193.1,113.1,-161.5Z; M102,-143.7C138.9,-113.5,180.3,-92.8,196.8,-59.7C213.4,-26.7,205.1,18.6,190.6,61.5C176.1,104.4,155.4,144.8,122.5,162.7C89.7,180.5,44.9,175.8,-1.2,177.4C-47.2,179,-94.4,187,-113.8,164.8C-133.1,142.5,-124.6,90.1,-143.6,43.8C-162.6,-2.6,-209.2,-42.9,-216.4,-85.7C-223.7,-128.5,-191.5,-173.9,-148.8,-202.2C-106.2,-230.5,-53.1,-241.7,-10.3,-227.6C32.5,-213.4,65,-173.9,102,-143.7Z; M120.2,-176.8C149.6,-144.2,162.8,-100.7,175.5,-57.9C188.3,-15,200.7,27.1,195.6,70.1C190.6,113,168.2,156.8,132.7,178C97.2,199.1,48.6,197.5,4.9,190.8C-38.8,184.1,-77.6,172.1,-115.3,151.7C-153,131.3,-189.7,102.4,-205.6,64.2C-221.6,26.1,-216.8,-21.4,-204,-67.9C-191.2,-114.4,-170.2,-160,-134.9,-190.6C-99.5,-221.3,-49.8,-237.2,-2.2,-234.2C45.5,-231.2,90.9,-209.5,120.2,-176.8Z" fill="freeze"   />
<path d="m116.04 40-8.0059 4.6406-8.0039 4.6406-8.041-4.625-8.0391-4.623-0.15046 0.08588c-0.08252 0.04799-8.8137 5.0797-19.402 11.182l-19.252 11.094 0.02938 14.156c0.0157 7.7864 0.02938 17.87 0.02938 22.41v8.2539l7.4746 4.3066 7.4766 4.3066v21.806l19.298 11.11c10.612 6.1139 19.354 11.147 19.426 11.184l0.13073 0.0643 14.732-8.5195c8.1022-4.6859 14.936-8.6364 15.186-8.7813 0.25066-0.14463 2.3199-1.3408 4.5996-2.6582 2.2797-1.3179 4.172-2.4175 4.2051-2.4434 0.0473-0.0379 0.0601-2.1527 0.0605-10.285l0.002-10.238 8.5274-4.959 8.5293-4.9609v-44.792l-17.98-10.352c-9.87-5.689-18.6-10.717-19.39-11.17l-0.0112-0.0045zm0.0253 17.148c0.0334-0.000471 2.977 1.6785 6.541 3.7305 3.5644 2.0515 8.9455 5.148 11.957 6.8808l5.4746 3.1504v27.721l-2.3535 1.3633c-1.2949 0.74904-2.3735 1.3702-2.3965 1.3789-0.0235 0.009-0.0451-4.3466-0.0489-9.9922-0.004-5.5043-0.0202-11.474-0.0352-13.266l-0.0294-3.2578-12.449-7.1875c-6.8458-3.9531-12.43-7.2034-12.41-7.2227 0.0202-0.01794 1.3082-0.76886 2.8633-1.666 1.5551-0.8976 2.8536-1.6323 2.8867-1.6328zm-32.021 0.02242c0.05583 0.03341 1.3629 0.78707 2.9121 1.6777 1.8728 1.0764 2.7985 1.6333 2.7559 1.6582-0.03543 0.02018-5.6504 3.2624-12.477 7.2012l-12.41 7.1621-0.01121 13.254c-0.0067 7.2909-0.02579 13.258-0.04305 13.258-0.01794 0-1.0949-0.6088-2.3945-1.3535l-2.3633-1.3555 0.01121-13.867 0.01121-13.869 11.955-6.9121c10.62-6.1402 11.967-6.9052 12.053-6.8535zm15.975 20.969c0.0112-0.000941 3.3384 1.9129 7.3926 4.2519l7.3711 4.2539v8.5293l-0.002 8.5293-7.377 4.2578-7.3789 4.2559-7.3574-4.2559-7.3574-4.2558v-17.065l7.3457-4.25c4.0393-2.3377 7.3538-4.251 7.3652-4.2519zm-24.979 43.281c0.01345 0 5.6001 3.2244 12.414 7.166 6.8141 3.9416 12.437 7.1881 12.496 7.2148 0.09239 0.0422 1.5495-0.7852 11.438-6.498 6.2327-3.6014 11.382-6.5789 11.441-6.6172l0.10741-0.0704v6.4512l-9.3086 5.3633c-5.12 2.9501-10.522 6.062-12.004 6.916l-2.6953 1.5528-11.957-6.8906-11.957-6.8926v-3.8477c0-2.1167 0.01121-3.8476 0.02534-3.8476z" fill="#fcfcfc" transform="translate(40 40) scale(0.6)" />
</svg>