<?xml version="1.0" encoding="utf-8"?>
<svg version="1.1" xmlns="http://www.w3.org/2000/svg" xmlns:xlink="http://www.w3.org/1999/xlink" x="0px" y="0px" viewBox="0 0 200 200" enable-background="new 0 0 200 200" xml:space="preserve">
<path fill="#30347c" d="m116.04 40-8.0059 4.6406-8.0039 4.6406-8.041-4.625-8.0391-4.623-0.15046 0.08588c-0.08252 0.04799-8.8137 5.0797-19.402 11.182l-19.252 11.094 0.02938 14.156c0.0157 7.7864 0.02938 17.87 0.02938 22.41v8.2539l7.4746 4.3066 7.4766 4.3066v21.806l19.298 11.11c10.612 6.1139 19.354 11.147 19.426 11.184l0.13073 0.0643 14.732-8.5195c8.1022-4.6859 14.936-8.6364 15.186-8.7813 0.25066-0.14463 2.3199-1.3408 4.5996-2.6582 2.2797-1.3179 4.172-2.4175 4.2051-2.4434 0.0473-0.0379 0.0601-2.1527 0.0605-10.285l0.002-10.238 8.5274-4.959 8.5293-4.9609v-44.792l-17.98-10.352c-9.87-5.689-18.6-10.717-19.39-11.17l-0.0112-0.0045zm0.0253 17.148c0.0334-0.000471 2.977 1.6785 6.541 3.7305 3.5644 2.0515 8.9455 5.148 11.957 6.8808l5.4746 3.1504v27.721l-2.3535 1.3633c-1.2949 0.74904-2.3735 1.3702-2.3965 1.3789-0.0235 0.009-0.0451-4.3466-0.0489-9.9922-0.004-5.5043-0.0202-11.474-0.0352-13.266l-0.0294-3.2578-12.449-7.1875c-6.8458-3.9531-12.43-7.2034-12.41-7.2227 0.0202-0.01794 1.3082-0.76886 2.8633-1.666 1.5551-0.8976 2.8536-1.6323 2.8867-1.6328zm-32.021 0.02242c0.05583 0.03341 1.3629 0.78707 2.9121 1.6777 1.8728 1.0764 2.7985 1.6333 2.7559 1.6582-0.03543 0.02018-5.6504 3.2624-12.477 7.2012l-12.41 7.1621-0.01121 13.254c-0.0067 7.2909-0.02579 13.258-0.04305 13.258-0.01794 0-1.0949-0.6088-2.3945-1.3535l-2.3633-1.3555 0.01121-13.867 0.01121-13.869 11.955-6.9121c10.62-6.1402 11.967-6.9052 12.053-6.8535zm15.975 20.969c0.0112-0.000941 3.3384 1.9129 7.3926 4.2519l7.3711 4.2539v8.5293l-0.002 8.5293-7.377 4.2578-7.3789 4.2559-7.3574-4.2559-7.3574-4.2558v-17.065l7.3457-4.25c4.0393-2.3377 7.3538-4.251 7.3652-4.2519zm-24.979 43.281c0.01345 0 5.6001 3.2244 12.414 7.166 6.8141 3.9416 12.437 7.1881 12.496 7.2148 0.09239 0.0422 1.5495-0.7852 11.438-6.498 6.2327-3.6014 11.382-6.5789 11.441-6.6172l0.10741-0.0704v6.4512l-9.3086 5.3633c-5.12 2.9501-10.522 6.062-12.004 6.916l-2.6953 1.5528-11.957-6.8906-11.957-6.8926v-3.8477c0-2.1167 0.01121-3.8476 0.02534-3.8476z" />
</svg>